<svg viewBox="0 0 17 18" fill="none" xmlns="http://www.w3.org/2000/svg">
<path d="M1 4.55556H15.2222M6.33333 8.11111V13.4444M9.88889 8.11111V13.4444M1.88889 4.55556L2.77778 15.2222C2.77778 15.6937 2.96508 16.1459 3.29848 16.4793C3.63187 16.8127 4.08406 17 4.55556 17H11.6667C12.1382 17 12.5903 16.8127 12.9237 16.4793C13.2571 16.1459 13.4444 15.6937 13.4444 15.2222L14.3333 4.55556M5.44444 4.55556V1.88889C5.44444 1.65314 5.5381 1.42705 5.70479 1.26035C5.87149 1.09365 6.09759 1 6.33333 1H9.88889C10.1246 1 10.3507 1.09365 10.5174 1.26035C10.6841 1.42705 10.7778 1.65314 10.7778 1.88889V4.55556" stroke="black" stroke-width="2" stroke-linecap="round" stroke-linejoin="round"/>
</svg>
