<svg width="36" height="24" viewBox="0 0 36 24" fill="none" xmlns="http://www.w3.org/2000/svg">
<path d="M35.8965 11.514C35.844 11.3955 34.5735 8.577 31.749 5.7525C27.9855 1.989 23.232 0 18 0C12.768 0 8.01449 1.989 4.25099 5.7525C1.42649 8.577 0.149986 11.4 0.103486 11.514C0.0352554 11.6675 0 11.8335 0 12.0015C0 12.1695 0.0352554 12.3355 0.103486 12.489C0.155986 12.6075 1.42649 15.4245 4.25099 18.249C8.01449 22.011 12.768 24 18 24C23.232 24 27.9855 22.011 31.749 18.249C34.5735 15.4245 35.844 12.6075 35.8965 12.489C35.9647 12.3355 36 12.1695 36 12.0015C36 11.8335 35.9647 11.6675 35.8965 11.514ZM18 21.6C13.383 21.6 9.34949 19.9215 6.01049 16.6125C4.64045 15.25 3.47487 13.6964 2.54999 12C3.47462 10.3034 4.64023 8.74977 6.01049 7.3875C9.34949 4.0785 13.383 2.4 18 2.4C22.617 2.4 26.6505 4.0785 29.9895 7.3875C31.3622 8.74944 32.5303 10.3031 33.4575 12C32.376 14.019 27.6645 21.6 18 21.6ZM18 4.8C16.576 4.8 15.1839 5.22227 13.9999 6.01342C12.8158 6.80457 11.893 7.92905 11.3481 9.24468C10.8031 10.5603 10.6605 12.008 10.9383 13.4047C11.2161 14.8013 11.9019 16.0842 12.9088 17.0912C13.9158 18.0981 15.1987 18.7838 16.5953 19.0617C17.992 19.3395 19.4397 19.1969 20.7553 18.6519C22.0709 18.107 23.1954 17.1841 23.9866 16.0001C24.7777 14.8161 25.2 13.424 25.2 12C25.198 10.0911 24.4388 8.26086 23.089 6.91102C21.7391 5.56119 19.9089 4.80199 18 4.8ZM18 16.8C17.0506 16.8 16.1226 16.5185 15.3333 15.9911C14.5439 15.4636 13.9287 14.714 13.5654 13.8369C13.2021 12.9598 13.107 11.9947 13.2922 11.0636C13.4774 10.1325 13.9346 9.27718 14.6059 8.60589C15.2772 7.9346 16.1324 7.47744 17.0636 7.29223C17.9947 7.10702 18.9598 7.20208 19.8369 7.56538C20.714 7.92868 21.4636 8.54391 21.991 9.33326C22.5185 10.1226 22.8 11.0507 22.8 12C22.8 13.273 22.2943 14.4939 21.3941 15.3941C20.4939 16.2943 19.273 16.8 18 16.8Z" fill="black"/>
</svg>
