<svg  viewBox="0 0 35 35" fill="none" xmlns="http://www.w3.org/2000/svg">
<path fill-rule="evenodd" clip-rule="evenodd" d="M8.75004 2.91663C7.97649 2.91663 7.23463 3.22392 6.68765 3.7709C6.14066 4.31788 5.83337 5.05974 5.83337 5.83329V29.1666C5.83337 29.9402 6.14066 30.682 6.68765 31.229C7.23463 31.776 7.97649 32.0833 8.75004 32.0833H26.25C27.0236 32.0833 27.7655 31.776 28.3124 31.229C28.8594 30.682 29.1667 29.9402 29.1667 29.1666V9.35371C29.1665 8.58022 28.8591 7.83848 28.3121 7.29163L24.7917 3.77121C24.2449 3.22419 23.5031 2.91679 22.7296 2.91663H8.75004ZM23.6805 15.7398C23.8197 15.6052 23.9308 15.4443 24.0073 15.2664C24.0837 15.0885 24.1239 14.8971 24.1256 14.7035C24.1273 14.5098 24.0904 14.3178 24.0171 14.1386C23.9437 13.9593 23.8355 13.7965 23.6985 13.6596C23.5616 13.5227 23.3988 13.4144 23.2196 13.3411C23.0403 13.2677 22.8483 13.2308 22.6547 13.2325C22.461 13.2342 22.2697 13.2744 22.0917 13.3509C21.9138 13.4273 21.7529 13.5384 21.6184 13.6777L15.4321 19.8654L13.3686 17.8018C13.0935 17.5362 12.7252 17.3892 12.3428 17.3925C11.9604 17.3958 11.5947 17.5492 11.3243 17.8196C11.0539 18.09 10.9005 18.4558 10.8972 18.8381C10.8939 19.2205 11.0409 19.5889 11.3065 19.8639L14.2961 22.855C14.4451 23.004 14.6219 23.1222 14.8166 23.2029C15.0113 23.2836 15.2199 23.3251 15.4307 23.3251C15.6414 23.3251 15.8501 23.2836 16.0447 23.2029C16.2394 23.1222 16.4163 23.004 16.5652 22.855L23.6805 15.7398Z" fill="#050505"/>
</svg>
